<?xml version="1.0" encoding="UTF-8" standalone="no"?>
<!-- Created with Inkscape (http://www.inkscape.org/) -->
<svg
   xmlns:dc="http://purl.org/dc/elements/1.1/"
   xmlns:cc="http://web.resource.org/cc/"
   xmlns:rdf="http://www.w3.org/1999/02/22-rdf-syntax-ns#"
   xmlns:svg="http://www.w3.org/2000/svg"
   xmlns="http://www.w3.org/2000/svg"
   xmlns:xlink="http://www.w3.org/1999/xlink"
   xmlns:sodipodi="http://sodipodi.sourceforge.net/DTD/sodipodi-0.dtd"
   xmlns:inkscape="http://www.inkscape.org/namespaces/inkscape"
   width="900"
   height="700"
   id="svg2160"
   sodipodi:version="0.32"
   inkscape:version="0.45"
   sodipodi:docbase="C:\Documents and Settings\panos\Desktop\Temp"
   sodipodi:docname="manigifts.svg"
   inkscape:output_extension="org.inkscape.output.svg.inkscape"
   version="1.0"
   sodipodi:modified="true">
  <defs
     id="defs2162">
    <linearGradient
       id="linearGradient14907">
      <stop
         style="stop-color:#2e3436;stop-opacity:1;"
         offset="0"
         id="stop14909" />
      <stop
         style="stop-color:#414a4c;stop-opacity:1;"
         offset="1"
         id="stop14911" />
    </linearGradient>
    <linearGradient
       id="linearGradient3162">
      <stop
         style="stop-color:#eeeeec;stop-opacity:1;"
         offset="0"
         id="stop3164" />
      <stop
         style="stop-color:#d3d3cd;stop-opacity:1;"
         offset="1"
         id="stop3166" />
    </linearGradient>
    <linearGradient
       inkscape:collect="always"
       id="linearGradient22676">
      <stop
         style="stop-color:#2e3436;stop-opacity:1;"
         offset="0"
         id="stop22678" />
      <stop
         style="stop-color:#2e3436;stop-opacity:0;"
         offset="1"
         id="stop22680" />
    </linearGradient>
    <linearGradient
       id="linearGradient21690">
      <stop
         style="stop-color:#2e3436;stop-opacity:1;"
         offset="0"
         id="stop21692" />
      <stop
         style="stop-color:#4d575b;stop-opacity:1;"
         offset="1"
         id="stop21694" />
    </linearGradient>
    <linearGradient
       id="linearGradient21682">
      <stop
         style="stop-color:#eeeeec;stop-opacity:1;"
         offset="0"
         id="stop21684" />
      <stop
         style="stop-color:#e2e2de;stop-opacity:1;"
         offset="1"
         id="stop21686" />
    </linearGradient>
    <linearGradient
       id="linearGradient14875">
      <stop
         style="stop-color:#d0f1b1;stop-opacity:1;"
         offset="0"
         id="stop14877" />
      <stop
         style="stop-color:#bcec8f;stop-opacity:1;"
         offset="1"
         id="stop14879" />
    </linearGradient>
    <linearGradient
       id="linearGradient6119">
      <stop
         style="stop-color:#eeeeec;stop-opacity:1;"
         offset="0"
         id="stop6121" />
      <stop
         style="stop-color:#ddddd8;stop-opacity:1;"
         offset="1"
         id="stop6123" />
    </linearGradient>
    <filter
       inkscape:collect="always"
       id="filter10005">
      <feGaussianBlur
         inkscape:collect="always"
         stdDeviation="2.45"
         id="feGaussianBlur10007" />
    </filter>
    <linearGradient
       inkscape:collect="always"
       xlink:href="#linearGradient22676"
       id="linearGradient22682"
       x1="103.3535"
       y1="4.9472656"
       x2="103.3535"
       y2="-67.339844"
       gradientUnits="userSpaceOnUse" />
    <linearGradient
       inkscape:collect="always"
       xlink:href="#linearGradient3162"
       id="linearGradient3168"
       x1="-450"
       y1="0"
       x2="-450"
       y2="-80"
       gradientUnits="userSpaceOnUse" />
    <filter
       inkscape:collect="always"
       id="filter10048">
      <feGaussianBlur
         inkscape:collect="always"
         stdDeviation="2.16"
         id="feGaussianBlur10050" />
    </filter>
    <filter
       inkscape:collect="always"
       id="filter11075">
      <feGaussianBlur
         inkscape:collect="always"
         stdDeviation="1.5"
         id="feGaussianBlur11077" />
    </filter>
    <filter
       inkscape:collect="always"
       id="filter14011">
      <feGaussianBlur
         inkscape:collect="always"
         stdDeviation="0.36368164"
         id="feGaussianBlur14013" />
    </filter>
  </defs>
  <sodipodi:namedview
     id="base"
     pagecolor="#ffffff"
     bordercolor="#666666"
     borderopacity="1.0"
     inkscape:pageopacity="0.0"
     inkscape:pageshadow="2"
     inkscape:zoom="1"
     inkscape:cx="354.40602"
     inkscape:cy="347.57795"
     inkscape:current-layer="layer1"
     inkscape:document-units="px"
     inkscape:window-width="1280"
     inkscape:window-height="977"
     inkscape:window-x="-4"
     inkscape:window-y="24"
     width="900px"
     height="700px" />
  <metadata
     id="metadata2165">
    <rdf:RDF>
      <cc:Work
         rdf:about="">
        <dc:format>image/svg+xml</dc:format>
        <dc:type
           rdf:resource="http://purl.org/dc/dcmitype/StillImage" />
      </cc:Work>
    </rdf:RDF>
  </metadata>
  <g
     id="layer1"
     inkscape:label="Layer 1"
     inkscape:groupmode="layer">
    <rect
       transform="scale(-1,-1)"
       ry="0"
       y="-700"
       x="-185"
       height="655"
       width="185"
       id="rect17790"
       style="fill:#eeeeec;fill-opacity:1;stroke:none;stroke-width:1;stroke-miterlimit:4;stroke-dasharray:none;stroke-dashoffset:0;stroke-opacity:1" />
    <path
       style="fill:#555753;fill-opacity:1;stroke:#ffffff;stroke-width:1;stroke-miterlimit:4;stroke-dasharray:none;stroke-dashoffset:0;stroke-opacity:1"
       d="M 21.0625,197.99999 C 18.251778,197.99999 16,199.88138 16,202.22976 L 16,513.77021 C 16,516.1186 18.251777,517.99995 21.0625,517.99998 L 186,517.99998 L 186,197.99999 L 21.0625,197.99999 z "
       id="rect16005" />
    <rect
       transform="scale(-1,-1)"
       ry="0"
       y="-80"
       x="-900"
       height="80"
       width="900"
       id="rect9034"
       style="opacity:1;fill:#2e3436;fill-opacity:1;stroke:none;stroke-width:1;stroke-miterlimit:4;stroke-dasharray:none;stroke-dashoffset:0;stroke-opacity:1;filter:url(#filter10005)" />
    <rect
       style="fill:url(#linearGradient3168);fill-opacity:1.0;stroke:none;stroke-width:1;stroke-miterlimit:4;stroke-dasharray:none;stroke-dashoffset:0;stroke-opacity:1"
       id="rect2214"
       width="900"
       height="80"
       x="-900"
       y="-80"
       ry="0"
       transform="scale(-1,-1)" />
    <path
       style="fill:none;fill-rule:evenodd;stroke:#ffffff;stroke-width:1px;stroke-linecap:butt;stroke-linejoin:miter;stroke-opacity:1;fill-opacity:1"
       d="M 0.65311,79.5 L 899.34689,79.5"
       id="path10982" />
    <rect
       ry="6.3750005"
       y="158"
       x="211.5"
       height="170"
       width="260"
       id="rect9073"
       style="opacity:1;fill:#4e9a06;fill-opacity:1;stroke:#4e9a06;stroke-width:1;stroke-miterlimit:4;stroke-dasharray:none;stroke-dashoffset:0;stroke-opacity:1;filter:url(#filter10048)" />
    <rect
       style="opacity:1;fill:#cff3ab;fill-opacity:1;stroke:#8ae234;stroke-width:1;stroke-miterlimit:4;stroke-dasharray:none;stroke-dashoffset:0;stroke-opacity:1"
       id="rect2189"
       width="260"
       height="170"
       x="211.5"
       y="158"
       ry="6.3750005" />
    <rect
       transform="scale(-1,-1)"
       ry="0"
       y="-19"
       x="-900"
       height="19"
       width="900"
       id="rect5108"
       style="fill:#2e3436;fill-opacity:1;stroke:none;stroke-width:1;stroke-miterlimit:4;stroke-dasharray:none;stroke-dashoffset:0;stroke-opacity:1" />
    <text
       xml:space="preserve"
       style="font-size:22px;font-style:normal;font-weight:bold;fill:#555753;fill-opacity:1;stroke:none;stroke-width:1px;stroke-linecap:butt;stroke-linejoin:miter;stroke-opacity:1;font-family:DejaVu Sans"
       x="208"
       y="119"
       id="text7060"><tspan
         sodipodi:role="line"
         id="tspan7062"
         x="208"
         y="119">Κεραμικά</tspan></text>
    <text
       xml:space="preserve"
       style="font-size:48px;font-style:normal;font-weight:bold;fill:#555753;fill-opacity:1;stroke:#ffffff;stroke-width:1px;stroke-linecap:butt;stroke-linejoin:miter;stroke-opacity:1;font-family:DejaVu Sans"
       x="845"
       y="67"
       id="text14915"><tspan
         sodipodi:role="line"
         id="tspan14917"
         x="845"
         y="67">€</tspan></text>
    <path
       style="fill:none;fill-rule:evenodd;stroke:#555753;stroke-width:1;stroke-linecap:butt;stroke-linejoin:miter;stroke-miterlimit:4;stroke-dasharray:1, 1;stroke-dashoffset:0;stroke-opacity:1"
       d="M 827,74 L 827,24"
       id="path15888" />
    <path
       id="path20737"
       d="M 0.50018893,18.5 L 899.49981,18.5"
       style="fill:none;fill-opacity:1;fill-rule:evenodd;stroke:#ffffff;stroke-width:1px;stroke-linecap:butt;stroke-linejoin:miter;stroke-opacity:1" />
    <rect
       style="opacity:1;fill:#ff3e3e;fill-opacity:1;stroke:#ff3e3e;stroke-width:1;stroke-miterlimit:4;stroke-dasharray:none;stroke-dashoffset:0;stroke-opacity:1;filter:url(#filter10048)"
       id="rect4151"
       width="260"
       height="170"
       x="511.5"
       y="158"
       ry="6.3750005" />
    <rect
       ry="6.3750005"
       y="158"
       x="511.5"
       height="170"
       width="260"
       id="rect4153"
       style="opacity:1;fill:#ffbebe;fill-opacity:1;stroke:#ff7c7c;stroke-width:1;stroke-miterlimit:4;stroke-dasharray:none;stroke-dashoffset:0;stroke-opacity:1" />
    <rect
       ry="6.3750005"
       y="366"
       x="511.5"
       height="170"
       width="260"
       id="rect4159"
       style="opacity:1;fill:#ff3e3e;fill-opacity:1;stroke:#ff3e3e;stroke-width:1;stroke-miterlimit:4;stroke-dasharray:none;stroke-dashoffset:0;stroke-opacity:1;filter:url(#filter10048)" />
    <rect
       style="opacity:1;fill:#ffbebe;fill-opacity:1;stroke:#ff7c7c;stroke-width:1;stroke-miterlimit:4;stroke-dasharray:none;stroke-dashoffset:0;stroke-opacity:1"
       id="rect4161"
       width="260"
       height="170"
       x="511.5"
       y="366"
       ry="6.3750005" />
    <rect
       style="opacity:1;fill:#4e9a06;fill-opacity:1;stroke:#4e9a06;stroke-width:1;stroke-miterlimit:4;stroke-dasharray:none;stroke-dashoffset:0;stroke-opacity:1;filter:url(#filter10048)"
       id="rect5132"
       width="260"
       height="170"
       x="211.5"
       y="366"
       ry="6.3750005" />
    <rect
       ry="6.3750005"
       y="366"
       x="211.5"
       height="170"
       width="260"
       id="rect5134"
       style="opacity:1;fill:#cff3ab;fill-opacity:1;stroke:#8ae234;stroke-width:1;stroke-miterlimit:4;stroke-dasharray:none;stroke-dashoffset:0;stroke-opacity:1" />
    <path
       style="fill:#555753;fill-opacity:1;stroke:#2e3436;stroke-width:0.99999994;stroke-miterlimit:4;stroke-dasharray:none;stroke-dashoffset:0;stroke-opacity:1;filter:url(#filter11075)"
       d="M 40.75,96 C 39.50891,96 38.5,97.00891 38.5,98.25 L 38.5,101 L 17.375,101 C 16.05925,101 15,102.05925 15,103.375 L 15,124.5 L 12.25,124.5 C 11.00891,124.5 10,125.50891 10,126.75 L 10,139.25 C 10,140.49109 11.00891,141.5 12.25,141.5 L 15,141.5 L 15,162.625 C 15,163.94075 16.05925,165 17.375,165 L 38.5,165 L 38.5,167.75 C 38.5,168.99109 39.50891,170 40.75,170 L 53.25,170 C 54.49109,170 55.5,168.99109 55.5,167.75 L 55.5,165 L 76.625,165 C 77.94075,165 78.999996,163.94075 79,162.625 L 79,141.5 L 81.75,141.5 C 82.99109,141.5 84,140.49109 84,139.25 L 84,126.75 C 84,125.50891 82.99109,124.5 81.75,124.5 L 79,124.5 L 79,103.375 C 79,102.05925 77.940754,101 76.625,101 L 55.5,101 L 55.5,98.25 C 55.5,97.00891 54.49109,96 53.25,96 L 40.75,96 z "
       id="rect10071" />
    <g
       id="g8085"
       transform="translate(9,11)">
      <g
         id="g8063">
        <rect
           style="opacity:1;fill:#ef2929;fill-opacity:1;stroke:#a40000;stroke-width:0.99999994;stroke-miterlimit:4;stroke-dasharray:none;stroke-dashoffset:0;stroke-opacity:1"
           id="rect5136"
           width="63.999996"
           height="64"
           x="6.0000057"
           y="89"
           ry="2.3750005" />
        <rect
           ry="2.300782"
           y="90"
           x="7.0000019"
           height="62.000008"
           width="62.000004"
           id="rect5138"
           style="opacity:1;fill:none;fill-opacity:1;stroke:#ff7c7c;stroke-width:0.99999994;stroke-miterlimit:4;stroke-dasharray:none;stroke-dashoffset:0;stroke-opacity:1" />
      </g>
      <g
         transform="translate(-0.4999943,0)"
         id="g8059">
        <rect
           style="opacity:1;fill:#fce94f;fill-opacity:1;stroke:#c4a000;stroke-width:0.99999994;stroke-miterlimit:4;stroke-dasharray:none;stroke-dashoffset:0;stroke-opacity:1"
           id="rect7078"
           width="17"
           height="74"
           x="29.999998"
           y="84"
           ry="2.2402351" />
        <rect
           ry="2.1796885"
           y="85"
           x="30.999998"
           height="72"
           width="14.999999"
           id="rect7080"
           style="opacity:1;fill:none;fill-opacity:1;stroke:#fff9d9;stroke-width:0.99999994;stroke-miterlimit:4;stroke-dasharray:none;stroke-dashoffset:0;stroke-opacity:1" />
      </g>
      <g
         transform="matrix(0,1,-1,0,159,82.500002)"
         id="g8055">
        <rect
           ry="2.2402351"
           y="84"
           x="29.999998"
           height="74"
           width="17"
           id="rect8051"
           style="opacity:1;fill:#fce94f;fill-opacity:1;stroke:#c4a000;stroke-width:0.99999994;stroke-miterlimit:4;stroke-dasharray:none;stroke-dashoffset:0;stroke-opacity:1" />
        <rect
           style="opacity:1;fill:none;fill-opacity:1;stroke:#fff9d9;stroke-width:0.99999994;stroke-miterlimit:4;stroke-dasharray:none;stroke-dashoffset:0;stroke-opacity:1"
           id="rect8053"
           width="14.999999"
           height="72"
           x="30.999998"
           y="85"
           ry="2.1796885" />
      </g>
    </g>
    <text
       sodipodi:linespacing="100%"
       id="text12067"
       y="125"
       x="133.97656"
       style="font-size:36px;font-style:normal;font-variant:normal;font-weight:normal;font-stretch:normal;text-align:center;line-height:100%;writing-mode:lr-tb;text-anchor:middle;fill:#ffffff;fill-opacity:1;stroke:#ffffff;stroke-width:1px;stroke-linecap:butt;stroke-linejoin:miter;stroke-opacity:1;filter:url(#filter14011);font-family:Palatino Linotype"
       xml:space="preserve"><tspan
         id="tspan12069"
         style="font-size:36px;font-style:normal;font-variant:normal;font-weight:normal;font-stretch:normal;text-align:center;line-height:100%;writing-mode:lr-tb;text-anchor:middle;fill:#ffffff;fill-opacity:1;stroke:#ffffff;stroke-opacity:1;font-family:Palatino Linotype"
         y="125"
         x="133.97656"
         sodipodi:role="line">Mani</tspan><tspan
         id="tspan12071"
         style="font-size:36px;font-style:normal;font-variant:normal;font-weight:bold;font-stretch:normal;text-align:center;line-height:100%;writing-mode:lr-tb;text-anchor:middle;fill:#ffffff;fill-opacity:1;stroke:#ffffff;stroke-opacity:1;font-family:Palatino Linotype"
         y="161"
         x="133.97656"
         sodipodi:role="line">Gifts</tspan></text>
    <g
       id="g8067"
       transform="translate(-259,-45)">
      <rect
         style="opacity:1;fill:#ef2929;fill-opacity:1;stroke:#a40000;stroke-width:0.99999994;stroke-miterlimit:4;stroke-dasharray:none;stroke-dashoffset:0;stroke-opacity:1"
         id="rect8069"
         width="63.999996"
         height="64"
         x="6.0000057"
         y="89"
         ry="2.3750005" />
      <rect
         ry="2.300782"
         y="90"
         x="7.0000019"
         height="62.000008"
         width="62.000004"
         id="rect8071"
         style="opacity:1;fill:none;fill-opacity:1;stroke:#ff7c7c;stroke-width:0.99999994;stroke-miterlimit:4;stroke-dasharray:none;stroke-dashoffset:0;stroke-opacity:1" />
    </g>
    <g
       transform="translate(-259.49999,-45)"
       id="g8073">
      <rect
         style="opacity:1;fill:#fce94f;fill-opacity:1;stroke:#c4a000;stroke-width:0.99999994;stroke-miterlimit:4;stroke-dasharray:none;stroke-dashoffset:0;stroke-opacity:1"
         id="rect8075"
         width="17"
         height="74"
         x="29.999998"
         y="84"
         ry="2.2402351" />
      <rect
         ry="2.1796885"
         y="85"
         x="30.999998"
         height="72"
         width="14.999999"
         id="rect8077"
         style="opacity:1;fill:none;fill-opacity:1;stroke:#fff9d9;stroke-width:0.99999994;stroke-miterlimit:4;stroke-dasharray:none;stroke-dashoffset:0;stroke-opacity:1" />
    </g>
    <g
       transform="matrix(0,1,-1,0,-100,37.500002)"
       id="g8079">
      <rect
         ry="2.2402351"
         y="84"
         x="29.999998"
         height="74"
         width="17"
         id="rect8081"
         style="opacity:1;fill:#fce94f;fill-opacity:1;stroke:#c4a000;stroke-width:0.99999994;stroke-miterlimit:4;stroke-dasharray:none;stroke-dashoffset:0;stroke-opacity:1" />
      <rect
         style="opacity:1;fill:none;fill-opacity:1;stroke:#fff9d9;stroke-width:0.99999994;stroke-miterlimit:4;stroke-dasharray:none;stroke-dashoffset:0;stroke-opacity:1"
         id="rect8083"
         width="14.999999"
         height="72"
         x="30.999998"
         y="85"
         ry="2.1796885" />
    </g>
    <text
       xml:space="preserve"
       style="font-size:36px;font-style:normal;font-variant:normal;font-weight:normal;font-stretch:normal;text-align:center;line-height:100%;writing-mode:lr-tb;text-anchor:middle;fill:#ffffff;fill-opacity:1;stroke:#ffffff;stroke-width:1px;stroke-linecap:butt;stroke-linejoin:miter;stroke-opacity:1;filter:url(#filter14011);font-family:Palatino Linotype"
       x="133.97656"
       y="125"
       id="text14015"
       sodipodi:linespacing="100%"><tspan
         sodipodi:role="line"
         x="133.97656"
         y="125"
         style="font-size:36px;font-style:normal;font-variant:normal;font-weight:normal;font-stretch:normal;text-align:center;line-height:100%;writing-mode:lr-tb;text-anchor:middle;fill:#ffffff;fill-opacity:1;stroke:#ffffff;stroke-opacity:1;font-family:Palatino Linotype"
         id="tspan14017">Mani</tspan><tspan
         sodipodi:role="line"
         x="133.97656"
         y="161"
         style="font-size:36px;font-style:normal;font-variant:normal;font-weight:bold;font-stretch:normal;text-align:center;line-height:100%;writing-mode:lr-tb;text-anchor:middle;fill:#ffffff;fill-opacity:1;stroke:#ffffff;stroke-opacity:1;font-family:Palatino Linotype"
         id="tspan14019">Gifts</tspan></text>
    <text
       xml:space="preserve"
       style="font-size:36px;font-style:normal;font-variant:normal;font-weight:normal;font-stretch:normal;text-align:center;line-height:100%;writing-mode:lr-tb;text-anchor:middle;fill:#d3d7cf;fill-opacity:1;stroke:none;stroke-width:1px;stroke-linecap:butt;stroke-linejoin:miter;stroke-opacity:1;font-family:Palatino Linotype"
       x="133.97656"
       y="125"
       id="text2210"
       sodipodi:linespacing="100%"><tspan
         sodipodi:role="line"
         x="133.97656"
         y="125"
         style="font-size:36px;font-style:normal;font-variant:normal;font-weight:normal;font-stretch:normal;text-align:center;line-height:100%;writing-mode:lr-tb;text-anchor:middle;fill:#d3d7cf;stroke:none;font-family:Palatino Linotype"
         id="tspan8106">Mani</tspan><tspan
         sodipodi:role="line"
         x="133.97656"
         y="161"
         style="font-size:36px;font-style:normal;font-variant:normal;font-weight:bold;font-stretch:normal;text-align:center;line-height:100%;writing-mode:lr-tb;text-anchor:middle;fill:#babdb6;stroke:none;font-family:Palatino Linotype"
         id="tspan8102">Gifts</tspan></text>
    <text
       xml:space="preserve"
       style="font-size:13px;font-style:normal;font-weight:normal;fill:#555753;fill-opacity:1;stroke:none;stroke-width:1px;stroke-linecap:butt;stroke-linejoin:miter;stroke-opacity:1;font-family:DejaVu Sans"
       x="5"
       y="12"
       id="text14021"><tspan
         sodipodi:role="line"
         id="tspan14023"
         x="5"
         y="12">www.mani<tspan
   style="font-size:13px;font-weight:normal;fill:#555753"
   id="tspan14025">gifts</tspan>.gr</tspan></text>
    <rect
       style="opacity:1;fill:#626460;fill-opacity:1;stroke:none;stroke-width:1;stroke-miterlimit:4;stroke-dasharray:none;stroke-dashoffset:0;stroke-opacity:1"
       id="rect17996"
       width="156"
       height="15"
       x="29"
       y="222"
       ry="0" />
    <path
       style="fill:#729fcf;fill-opacity:1;stroke:#eeeeec;stroke-width:0.99999976;stroke-miterlimit:4;stroke-dasharray:none;stroke-dashoffset:0;stroke-opacity:1"
       d="M 28.680199,234.87256 C 28.834376,235.02674 29.085024,235.02674 29.239201,234.87257 L 29.580801,234.53097 L 32.204984,237.15514 C 32.368431,237.31859 32.631593,237.31858 32.795039,237.15514 L 35.419218,234.53096 L 35.760819,234.87257 C 35.915,235.02674 36.165647,235.02673 36.319818,234.87256 L 37.87259,233.31979 C 38.02676,233.16562 38.026767,232.91497 37.87259,232.7608 L 37.530984,232.41919 L 40.155164,229.79501 C 40.318609,229.63157 40.318611,229.36841 40.155164,229.20496 L 37.530986,226.58078 L 37.872593,226.23917 C 38.026765,226.085 38.02676,225.83435 37.872583,225.68017 L 36.319821,224.12741 C 36.165649,223.97324 35.915,223.97323 35.760822,224.12741 L 35.419216,224.46902 L 32.795028,221.84483 C 32.631589,221.68139 32.368433,221.68139 32.204976,221.84483 L 29.580809,224.46901 L 29.239205,224.12741 C 29.085035,223.97324 28.834368,223.97324 28.680202,224.1274 L 27.127429,225.68017 C 26.97326,225.83434 26.973258,226.085 27.127434,226.23918 L 27.469031,226.58078 L 24.844863,229.20496 C 24.681417,229.3684 24.681408,229.63157 24.844855,229.79502 L 27.469036,232.4192 L 27.127432,232.7608 C 26.973259,232.91497 26.973265,233.16562 27.127432,233.3198 L 28.680199,234.87256 z "
       id="rect15005" />
    <text
       xml:space="preserve"
       style="font-size:14px;font-style:normal;font-variant:normal;font-weight:normal;font-stretch:normal;text-align:start;line-height:150%;writing-mode:lr-tb;text-anchor:start;fill:#eeeeec;fill-opacity:1;stroke:none;stroke-width:1px;stroke-linecap:butt;stroke-linejoin:miter;stroke-opacity:1;font-family:DejaVu Sans"
       x="45"
       y="234"
       id="text15997"
       sodipodi:linespacing="150%"><tspan
         sodipodi:role="line"
         id="tspan15999"
         x="45"
         y="234">Κεραμικά</tspan><tspan
         sodipodi:role="line"
         x="45"
         y="255"
         id="tspan16977">Κοσμήματα</tspan><tspan
         sodipodi:role="line"
         x="45"
         y="276"
         id="tspan16979">Εικόνες</tspan><tspan
         sodipodi:role="line"
         x="45"
         y="297"
         id="tspan16981">Αρωματικά</tspan><tspan
         sodipodi:role="line"
         x="45"
         y="318"
         id="tspan16983">Τοπικά Προιόντα</tspan><tspan
         sodipodi:role="line"
         x="45"
         y="339"
         id="tspan16985">Διάφορα</tspan><tspan
         sodipodi:role="line"
         x="45"
         y="360"
         id="tspan16987">Παιχνίδια</tspan><tspan
         sodipodi:role="line"
         x="45"
         y="377.20488"
         id="tspan16989"
         style="font-size:10px;font-style:normal;font-variant:normal;font-weight:normal;font-stretch:normal;text-align:start;line-height:150%;writing-mode:lr-tb;text-anchor:start;fill:#eeeeec;font-family:DejaVu Sans">Πάνινα</tspan><tspan
         sodipodi:role="line"
         x="45"
         y="392.20488"
         id="tspan16991"
         style="font-size:10px;font-style:normal;font-variant:normal;font-weight:normal;font-stretch:normal;text-align:start;line-height:150%;writing-mode:lr-tb;text-anchor:start;fill:#eeeeec;font-family:DejaVu Sans">Ξύλινα</tspan><tspan
         sodipodi:role="line"
         x="45"
         y="407.20488"
         id="tspan16993"
         style="font-size:10px;font-style:normal;font-variant:normal;font-weight:normal;font-stretch:normal;text-align:start;line-height:150%;writing-mode:lr-tb;text-anchor:start;fill:#eeeeec;font-family:DejaVu Sans">Μεταλικά</tspan><tspan
         sodipodi:role="line"
         x="45"
         y="422.20488"
         style="font-size:10px;font-style:normal;font-variant:normal;font-weight:normal;font-stretch:normal;text-align:start;line-height:150%;writing-mode:lr-tb;text-anchor:start;fill:#eeeeec;font-family:DejaVu Sans"
         id="tspan17988" /><tspan
         sodipodi:role="line"
         x="45"
         y="441"
         id="tspan16995">Κάρτες</tspan><tspan
         sodipodi:role="line"
         x="45"
         y="462"
         id="tspan16997">Πορσελάνη</tspan><tspan
         sodipodi:role="line"
         x="45"
         y="483"
         id="tspan16999">Είδη Γραφείου</tspan></text>
    <rect
       style="opacity:1;fill:#babdb6;fill-opacity:1;stroke:#ffffff;stroke-width:1;stroke-miterlimit:4;stroke-dasharray:none;stroke-dashoffset:0;stroke-opacity:1"
       id="rect16001"
       width="168"
       height="3"
       x="8.999999"
       y="182"
       ry="1.5" />
    <text
       id="text18969"
       y="253.63477"
       x="159"
       style="font-size:10px;font-style:normal;font-weight:bold;fill:#2e3436;fill-opacity:1;stroke:none;stroke-width:1px;stroke-linecap:butt;stroke-linejoin:miter;stroke-opacity:1;font-family:DejaVu Sans"
       xml:space="preserve"><tspan
         y="253.63477"
         x="159"
         id="tspan18971"
         sodipodi:role="line">(15)</tspan></text>
    <path
       id="path17001"
       d="M 28.680199,256.87256 C 28.834376,257.02674 29.085024,257.02674 29.239201,256.87257 L 29.580801,256.53097 L 32.204984,259.15514 C 32.368431,259.31859 32.631593,259.31858 32.795039,259.15514 L 35.419218,256.53096 L 35.760819,256.87257 C 35.915,257.02674 36.165647,257.02673 36.319818,256.87256 L 37.87259,255.31979 C 38.02676,255.16562 38.026767,254.91497 37.87259,254.7608 L 37.530984,254.41919 L 40.155164,251.79501 C 40.318609,251.63157 40.318611,251.36841 40.155164,251.20496 L 37.530986,248.58078 L 37.872593,248.23917 C 38.026765,248.085 38.02676,247.83435 37.872583,247.68017 L 36.319821,246.12741 C 36.165649,245.97324 35.915,245.97323 35.760822,246.12741 L 35.419216,246.46902 L 32.795028,243.84483 C 32.631589,243.68139 32.368433,243.68139 32.204976,243.84483 L 29.580809,246.46901 L 29.239205,246.12741 C 29.085035,245.97324 28.834368,245.97324 28.680202,246.1274 L 27.127429,247.68017 C 26.97326,247.83434 26.973258,248.085 27.127434,248.23918 L 27.469031,248.58078 L 24.844863,251.20496 C 24.681417,251.3684 24.681408,251.63157 24.844855,251.79502 L 27.469036,254.4192 L 27.127432,254.7608 C 26.973259,254.91497 26.973265,255.16562 27.127432,255.3198 L 28.680199,256.87256 z "
       style="fill:#233246;fill-opacity:1;stroke:#babdb6;stroke-width:0.99999976;stroke-miterlimit:4;stroke-dasharray:none;stroke-dashoffset:0;stroke-opacity:1" />
    <path
       style="fill:#233246;fill-opacity:1;stroke:#babdb6;stroke-width:0.99999976;stroke-miterlimit:4;stroke-dasharray:none;stroke-dashoffset:0;stroke-opacity:1"
       d="M 28.680199,276.87256 C 28.834376,277.02674 29.085024,277.02674 29.239201,276.87257 L 29.580801,276.53097 L 32.204984,279.15514 C 32.368431,279.31859 32.631593,279.31858 32.795039,279.15514 L 35.419218,276.53096 L 35.760819,276.87257 C 35.915,277.02674 36.165647,277.02673 36.319818,276.87256 L 37.87259,275.31979 C 38.02676,275.16562 38.026767,274.91497 37.87259,274.7608 L 37.530984,274.41919 L 40.155164,271.79501 C 40.318609,271.63157 40.318611,271.36841 40.155164,271.20496 L 37.530986,268.58078 L 37.872593,268.23917 C 38.026765,268.085 38.02676,267.83435 37.872583,267.68017 L 36.319821,266.12741 C 36.165649,265.97324 35.915,265.97323 35.760822,266.12741 L 35.419216,266.46902 L 32.795028,263.84483 C 32.631589,263.68139 32.368433,263.68139 32.204976,263.84483 L 29.580809,266.46901 L 29.239205,266.12741 C 29.085035,265.97324 28.834368,265.97324 28.680202,266.1274 L 27.127429,267.68017 C 26.97326,267.83434 26.973258,268.085 27.127434,268.23918 L 27.469031,268.58078 L 24.844863,271.20496 C 24.681417,271.3684 24.681408,271.63157 24.844855,271.79502 L 27.469036,274.4192 L 27.127432,274.7608 C 26.973259,274.91497 26.973265,275.16562 27.127432,275.3198 L 28.680199,276.87256 z "
       id="path17003" />
    <path
       id="path17005"
       d="M 28.680199,298.87256 C 28.834376,299.02674 29.085024,299.02674 29.239201,298.87257 L 29.580801,298.53097 L 32.204984,301.15514 C 32.368431,301.31859 32.631593,301.31858 32.795039,301.15514 L 35.419218,298.53096 L 35.760819,298.87257 C 35.915,299.02674 36.165647,299.02673 36.319818,298.87256 L 37.87259,297.31979 C 38.02676,297.16562 38.026767,296.91497 37.87259,296.7608 L 37.530984,296.41919 L 40.155164,293.79501 C 40.318609,293.63157 40.318611,293.36841 40.155164,293.20496 L 37.530986,290.58078 L 37.872593,290.23917 C 38.026765,290.085 38.02676,289.83435 37.872583,289.68017 L 36.319821,288.12741 C 36.165649,287.97324 35.915,287.97323 35.760822,288.12741 L 35.419216,288.46902 L 32.795028,285.84483 C 32.631589,285.68139 32.368433,285.68139 32.204976,285.84483 L 29.580809,288.46901 L 29.239205,288.12741 C 29.085035,287.97324 28.834368,287.97324 28.680202,288.1274 L 27.127429,289.68017 C 26.97326,289.83434 26.973258,290.085 27.127434,290.23918 L 27.469031,290.58078 L 24.844863,293.20496 C 24.681417,293.3684 24.681408,293.63157 24.844855,293.79502 L 27.469036,296.4192 L 27.127432,296.7608 C 26.973259,296.91497 26.973265,297.16562 27.127432,297.3198 L 28.680199,298.87256 z "
       style="fill:#233246;fill-opacity:1;stroke:#babdb6;stroke-width:0.99999976;stroke-miterlimit:4;stroke-dasharray:none;stroke-dashoffset:0;stroke-opacity:1" />
    <path
       style="fill:#233246;fill-opacity:1;stroke:#babdb6;stroke-width:0.99999976;stroke-miterlimit:4;stroke-dasharray:none;stroke-dashoffset:0;stroke-opacity:1"
       d="M 28.680199,318.87256 C 28.834376,319.02674 29.085024,319.02674 29.239201,318.87257 L 29.580801,318.53097 L 32.204984,321.15514 C 32.368431,321.31859 32.631593,321.31858 32.795039,321.15514 L 35.419218,318.53096 L 35.760819,318.87257 C 35.915,319.02674 36.165647,319.02673 36.319818,318.87256 L 37.87259,317.31979 C 38.02676,317.16562 38.026767,316.91497 37.87259,316.7608 L 37.530984,316.41919 L 40.155164,313.79501 C 40.318609,313.63157 40.318611,313.36841 40.155164,313.20496 L 37.530986,310.58078 L 37.872593,310.23917 C 38.026765,310.085 38.02676,309.83435 37.872583,309.68017 L 36.319821,308.12741 C 36.165649,307.97324 35.915,307.97323 35.760822,308.12741 L 35.419216,308.46902 L 32.795028,305.84483 C 32.631589,305.68139 32.368433,305.68139 32.204976,305.84483 L 29.580809,308.46901 L 29.239205,308.12741 C 29.085035,307.97324 28.834368,307.97324 28.680202,308.1274 L 27.127429,309.68017 C 26.97326,309.83434 26.973258,310.085 27.127434,310.23918 L 27.469031,310.58078 L 24.844863,313.20496 C 24.681417,313.3684 24.681408,313.63157 24.844855,313.79502 L 27.469036,316.4192 L 27.127432,316.7608 C 26.973259,316.91497 26.973265,317.16562 27.127432,317.3198 L 28.680199,318.87256 z "
       id="path17007" />
    <path
       id="path17009"
       d="M 28.680199,338.87256 C 28.834376,339.02674 29.085024,339.02674 29.239201,338.87257 L 29.580801,338.53097 L 32.204984,341.15514 C 32.368431,341.31859 32.631593,341.31858 32.795039,341.15514 L 35.419218,338.53096 L 35.760819,338.87257 C 35.915,339.02674 36.165647,339.02673 36.319818,338.87256 L 37.87259,337.31979 C 38.02676,337.16562 38.026767,336.91497 37.87259,336.7608 L 37.530984,336.41919 L 40.155164,333.79501 C 40.318609,333.63157 40.318611,333.36841 40.155164,333.20496 L 37.530986,330.58078 L 37.872593,330.23917 C 38.026765,330.085 38.02676,329.83435 37.872583,329.68017 L 36.319821,328.12741 C 36.165649,327.97324 35.915,327.97323 35.760822,328.12741 L 35.419216,328.46902 L 32.795028,325.84483 C 32.631589,325.68139 32.368433,325.68139 32.204976,325.84483 L 29.580809,328.46901 L 29.239205,328.12741 C 29.085035,327.97324 28.834368,327.97324 28.680202,328.1274 L 27.127429,329.68017 C 26.97326,329.83434 26.973258,330.085 27.127434,330.23918 L 27.469031,330.58078 L 24.844863,333.20496 C 24.681417,333.3684 24.681408,333.63157 24.844855,333.79502 L 27.469036,336.4192 L 27.127432,336.7608 C 26.973259,336.91497 26.973265,337.16562 27.127432,337.3198 L 28.680199,338.87256 z "
       style="fill:#233246;fill-opacity:1;stroke:#babdb6;stroke-width:0.99999976;stroke-miterlimit:4;stroke-dasharray:none;stroke-dashoffset:0;stroke-opacity:1" />
    <path
       style="fill:#233246;fill-opacity:1;stroke:#babdb6;stroke-width:0.99999976;stroke-miterlimit:4;stroke-dasharray:none;stroke-dashoffset:0;stroke-opacity:1"
       d="M 28.680199,360.87256 C 28.834376,361.02674 29.085024,361.02674 29.239201,360.87257 L 29.580801,360.53097 L 32.204984,363.15514 C 32.368431,363.31859 32.631593,363.31858 32.795039,363.15514 L 35.419218,360.53096 L 35.760819,360.87257 C 35.915,361.02674 36.165647,361.02673 36.319818,360.87256 L 37.87259,359.31979 C 38.02676,359.16562 38.026767,358.91497 37.87259,358.7608 L 37.530984,358.41919 L 40.155164,355.79501 C 40.318609,355.63157 40.318611,355.36841 40.155164,355.20496 L 37.530986,352.58078 L 37.872593,352.23917 C 38.026765,352.085 38.02676,351.83435 37.872583,351.68017 L 36.319821,350.12741 C 36.165649,349.97324 35.915,349.97323 35.760822,350.12741 L 35.419216,350.46902 L 32.795028,347.84483 C 32.631589,347.68139 32.368433,347.68139 32.204976,347.84483 L 29.580809,350.46901 L 29.239205,350.12741 C 29.085035,349.97324 28.834368,349.97324 28.680202,350.1274 L 27.127429,351.68017 C 26.97326,351.83434 26.973258,352.085 27.127434,352.23918 L 27.469031,352.58078 L 24.844863,355.20496 C 24.681417,355.3684 24.681408,355.63157 24.844855,355.79502 L 27.469036,358.4192 L 27.127432,358.7608 C 26.973259,358.91497 26.973265,359.16562 27.127432,359.3198 L 28.680199,360.87256 z "
       id="path17011" />
    <path
       id="path17013"
       d="M 28.680199,441.87256 C 28.834376,442.02674 29.085024,442.02674 29.239201,441.87257 L 29.580801,441.53097 L 32.204984,444.15514 C 32.368431,444.31859 32.631593,444.31858 32.795039,444.15514 L 35.419218,441.53096 L 35.760819,441.87257 C 35.915,442.02674 36.165647,442.02673 36.319818,441.87256 L 37.87259,440.31979 C 38.02676,440.16562 38.026767,439.91497 37.87259,439.7608 L 37.530984,439.41919 L 40.155164,436.79501 C 40.318609,436.63157 40.318611,436.36841 40.155164,436.20496 L 37.530986,433.58078 L 37.872593,433.23917 C 38.026765,433.085 38.02676,432.83435 37.872583,432.68017 L 36.319821,431.12741 C 36.165649,430.97324 35.915,430.97323 35.760822,431.12741 L 35.419216,431.46902 L 32.795028,428.84483 C 32.631589,428.68139 32.368433,428.68139 32.204976,428.84483 L 29.580809,431.46901 L 29.239205,431.12741 C 29.085035,430.97324 28.834368,430.97324 28.680202,431.1274 L 27.127429,432.68017 C 26.97326,432.83434 26.973258,433.085 27.127434,433.23918 L 27.469031,433.58078 L 24.844863,436.20496 C 24.681417,436.3684 24.681408,436.63157 24.844855,436.79502 L 27.469036,439.4192 L 27.127432,439.7608 C 26.973259,439.91497 26.973265,440.16562 27.127432,440.3198 L 28.680199,441.87256 z "
       style="fill:#233246;fill-opacity:1;stroke:#babdb6;stroke-width:0.99999976;stroke-miterlimit:4;stroke-dasharray:none;stroke-dashoffset:0;stroke-opacity:1" />
    <path
       style="fill:#233246;fill-opacity:1;stroke:#babdb6;stroke-width:0.99999976;stroke-miterlimit:4;stroke-dasharray:none;stroke-dashoffset:0;stroke-opacity:1"
       d="M 28.680199,461.87256 C 28.834376,462.02674 29.085024,462.02674 29.239201,461.87257 L 29.580801,461.53097 L 32.204984,464.15514 C 32.368431,464.31859 32.631593,464.31858 32.795039,464.15514 L 35.419218,461.53096 L 35.760819,461.87257 C 35.915,462.02674 36.165647,462.02673 36.319818,461.87256 L 37.87259,460.31979 C 38.02676,460.16562 38.026767,459.91497 37.87259,459.7608 L 37.530984,459.41919 L 40.155164,456.79501 C 40.318609,456.63157 40.318611,456.36841 40.155164,456.20496 L 37.530986,453.58078 L 37.872593,453.23917 C 38.026765,453.085 38.02676,452.83435 37.872583,452.68017 L 36.319821,451.12741 C 36.165649,450.97324 35.915,450.97323 35.760822,451.12741 L 35.419216,451.46902 L 32.795028,448.84483 C 32.631589,448.68139 32.368433,448.68139 32.204976,448.84483 L 29.580809,451.46901 L 29.239205,451.12741 C 29.085035,450.97324 28.834368,450.97324 28.680202,451.1274 L 27.127429,452.68017 C 26.97326,452.83434 26.973258,453.085 27.127434,453.23918 L 27.469031,453.58078 L 24.844863,456.20496 C 24.681417,456.3684 24.681408,456.63157 24.844855,456.79502 L 27.469036,459.4192 L 27.127432,459.7608 C 26.973259,459.91497 26.973265,460.16562 27.127432,460.3198 L 28.680199,461.87256 z "
       id="path17015" />
    <path
       id="path17017"
       d="M 28.680199,483.87256 C 28.834376,484.02674 29.085024,484.02674 29.239201,483.87257 L 29.580801,483.53097 L 32.204984,486.15514 C 32.368431,486.31859 32.631593,486.31858 32.795039,486.15514 L 35.419218,483.53096 L 35.760819,483.87257 C 35.915,484.02674 36.165647,484.02673 36.319818,483.87256 L 37.87259,482.31979 C 38.02676,482.16562 38.026767,481.91497 37.87259,481.7608 L 37.530984,481.41919 L 40.155164,478.79501 C 40.318609,478.63157 40.318611,478.36841 40.155164,478.20496 L 37.530986,475.58078 L 37.872593,475.23917 C 38.026765,475.085 38.02676,474.83435 37.872583,474.68017 L 36.319821,473.12741 C 36.165649,472.97324 35.915,472.97323 35.760822,473.12741 L 35.419216,473.46902 L 32.795028,470.84483 C 32.631589,470.68139 32.368433,470.68139 32.204976,470.84483 L 29.580809,473.46901 L 29.239205,473.12741 C 29.085035,472.97324 28.834368,472.97324 28.680202,473.1274 L 27.127429,474.68017 C 26.97326,474.83434 26.973258,475.085 27.127434,475.23918 L 27.469031,475.58078 L 24.844863,478.20496 C 24.681417,478.3684 24.681408,478.63157 24.844855,478.79502 L 27.469036,481.4192 L 27.127432,481.7608 C 26.973259,481.91497 26.973265,482.16562 27.127432,482.3198 L 28.680199,483.87256 z "
       style="fill:#233246;fill-opacity:1;stroke:#babdb6;stroke-width:0.99999976;stroke-miterlimit:4;stroke-dasharray:none;stroke-dashoffset:0;stroke-opacity:1" />
    <text
       xml:space="preserve"
       style="font-size:10px;font-style:normal;font-weight:bold;fill:#8ae234;fill-opacity:1;stroke:none;stroke-width:1px;stroke-linecap:butt;stroke-linejoin:miter;stroke-opacity:1;font-family:DejaVu Sans"
       x="159"
       y="232.63477"
       id="text17992"><tspan
         sodipodi:role="line"
         id="tspan17994"
         x="159"
         y="232.63477">(20)</tspan></text>
    <text
       xml:space="preserve"
       style="font-size:10px;font-style:normal;font-weight:bold;fill:#2e3436;fill-opacity:1;stroke:none;stroke-width:1px;stroke-linecap:butt;stroke-linejoin:miter;stroke-opacity:1;font-family:DejaVu Sans"
       x="159"
       y="273.63477"
       id="text18973"><tspan
         sodipodi:role="line"
         id="tspan18975"
         x="159"
         y="273.63477">(37)</tspan></text>
    <text
       id="text18977"
       y="295.63477"
       x="159"
       style="font-size:10px;font-style:normal;font-weight:bold;fill:#2e3436;fill-opacity:1;stroke:none;stroke-width:1px;stroke-linecap:butt;stroke-linejoin:miter;stroke-opacity:1;font-family:DejaVu Sans"
       xml:space="preserve"><tspan
         y="295.63477"
         x="159"
         id="tspan18979"
         sodipodi:role="line">(48)</tspan></text>
    <text
       xml:space="preserve"
       style="font-size:10px;font-style:normal;font-weight:bold;fill:#2e3436;fill-opacity:1;stroke:none;stroke-width:1px;stroke-linecap:butt;stroke-linejoin:miter;stroke-opacity:1;font-family:DejaVu Sans"
       x="159"
       y="337.63477"
       id="text18981"><tspan
         sodipodi:role="line"
         id="tspan18983"
         x="159"
         y="337.63477">(25)</tspan></text>
    <text
       id="text18985"
       y="357.63477"
       x="159"
       style="font-size:10px;font-style:normal;font-weight:bold;fill:#2e3436;fill-opacity:1;stroke:none;stroke-width:1px;stroke-linecap:butt;stroke-linejoin:miter;stroke-opacity:1;font-family:DejaVu Sans"
       xml:space="preserve"><tspan
         y="357.63477"
         x="159"
         id="tspan18987"
         sodipodi:role="line">(66)</tspan></text>
    <text
       xml:space="preserve"
       style="font-size:10px;font-style:normal;font-weight:bold;fill:#2e3436;fill-opacity:1;stroke:none;stroke-width:1px;stroke-linecap:butt;stroke-linejoin:miter;stroke-opacity:1;font-family:DejaVu Sans"
       x="159"
       y="440.63477"
       id="text18989"><tspan
         sodipodi:role="line"
         id="tspan18991"
         x="159"
         y="440.63477">(05)</tspan></text>
    <text
       id="text18993"
       y="461.63477"
       x="159"
       style="font-size:10px;font-style:normal;font-weight:bold;fill:#2e3436;fill-opacity:1;stroke:none;stroke-width:1px;stroke-linecap:butt;stroke-linejoin:miter;stroke-opacity:1;font-family:DejaVu Sans"
       xml:space="preserve"><tspan
         y="461.63477"
         x="159"
         id="tspan18995"
         sodipodi:role="line">(34)</tspan></text>
    <text
       xml:space="preserve"
       style="font-size:10px;font-style:normal;font-weight:bold;fill:#2e3436;fill-opacity:1;stroke:none;stroke-width:1px;stroke-linecap:butt;stroke-linejoin:miter;stroke-opacity:1;font-family:DejaVu Sans"
       x="159"
       y="481.63477"
       id="text18997"><tspan
         sodipodi:role="line"
         id="tspan18999"
         x="159"
         y="481.63477">(13)</tspan></text>
    <text
       xml:space="preserve"
       style="font-size:10px;font-style:normal;font-weight:normal;text-align:center;text-anchor:middle;fill:#babdb6;fill-opacity:1;stroke:none;stroke-width:1px;stroke-linecap:butt;stroke-linejoin:miter;stroke-opacity:1;font-family:DejaVu Sans"
       x="93"
       y="677"
       id="text19970"><tspan
         sodipodi:role="line"
         id="tspan19972"
         x="93"
         y="677">Copyright <tspan
   style="fill:#729fcf"
   id="tspan19976">ManiGifts.gr</tspan> 2007.</tspan><tspan
         sodipodi:role="line"
         x="93"
         y="689.5"
         id="tspan19974">All rights reserved.</tspan></text>
  </g>
</svg>
